<?xml version="1.0" standalone="no"?>
<!DOCTYPE svg PUBLIC "-//W3C//DTD SVG 20010904//EN"
 "http://www.w3.org/TR/2001/REC-SVG-20010904/DTD/svg10.dtd">
<svg version="1.0" xmlns="http://www.w3.org/2000/svg"
 width="540.000000pt" height="540.000000pt" viewBox="0 0 540.000000 540.000000"
 preserveAspectRatio="xMidYMid meet">

<g transform="translate(0.000000,540.000000) scale(0.100000,-0.100000)"
fill="#198754" stroke="none">
<path d="M0 2700 l0 -2700 2700 0 2700 0 0 2700 0 2700 -2700 0 -2700 0 0
-2700z m2870 2080 c236 -25 441 -84 655 -191 655 -325 1064 -1014 1031 -1739
-16 -375 -143 -708 -386 -1015 -51 -64 -205 -219 -280 -281 -103 -85 -309
-210 -417 -253 -31 -12 -33 -12 -64 23 -17 20 -42 39 -56 42 -13 4 -23 10 -21
15 2 5 48 53 102 109 l99 100 39 -35 c63 -58 82 -52 203 66 131 127 173 187
194 277 15 65 24 79 121 197 236 286 319 417 346 547 30 142 -11 227 -134 279
-49 21 -164 50 -172 43 -2 -3 7 -8 20 -11 50 -13 124 -59 154 -96 28 -35 31
-46 31 -105 -1 -112 -53 -188 -331 -479 l-154 -161 15 -37 c19 -44 22 -126 6
-181 -11 -41 -107 -160 -196 -244 l-37 -35 -102 105 c-126 131 -141 159 -141
266 0 72 3 86 30 130 19 30 49 60 79 79 44 27 58 30 125 30 53 0 86 -6 108
-18 l32 -17 199 210 c241 254 274 298 280 378 4 51 1 62 -23 90 -31 38 -128
85 -205 101 -102 22 -324 41 -545 48 -180 5 -227 9 -260 24 l-40 18 95 -4 c52
-3 203 -7 335 -10 230 -5 486 -17 683 -31 l92 -7 0 70 c0 159 -58 381 -146
556 -25 51 -51 98 -56 105 -8 9 -100 12 -397 12 l-386 0 -35 63 c-52 92 -187
222 -285 274 -241 126 -516 120 -748 -18 -87 -52 -198 -162 -252 -252 l-40
-66 -395 -3 -395 -3 -51 -99 c-92 -176 -154 -415 -154 -594 l0 -84 187 7 c257
10 697 22 701 19 2 -1 -31 -20 -72 -43 -55 -30 -87 -41 -118 -41 -60 0 -762
-80 -840 -96 -26 -5 -26 -5 -33 68 -8 88 9 286 36 423 95 474 387 905 795
1172 349 227 793 342 1174 303z m-2 -725 c184 -44 342 -173 427 -350 51 -106
65 -166 65 -280 l0 -85 -55 0 -55 0 0 -100 0 -100 -45 0 -45 0 0 90 0 90 -55
0 -55 0 0 -35 c0 -24 -5 -35 -15 -35 -10 0 -15 11 -15 35 l0 35 -60 0 -60 0 0
-90 c0 -89 0 -90 -24 -90 -19 0 -26 7 -31 31 l-7 31 -82 -4 -81 -3 -3 63 -3
63 -117 -3 -117 -3 -2 -30 c0 -16 -2 -40 -2 -51 -1 -16 -9 -23 -31 -27 -24 -5
-30 -12 -30 -32 0 -20 -5 -25 -25 -25 l-25 0 0 135 0 135 -125 0 -125 0 0 53
c0 72 22 148 70 242 85 170 238 291 430 344 55 15 228 12 298 -4z m-868 -388
c-1 -1 -9 -36 -19 -77 l-18 -75 -361 -3 -361 -2 17 37 c31 66 54 108 66 115 9
7 677 11 676 5z m2131 -59 c19 -35 37 -71 41 -80 7 -17 -13 -18 -348 -18 -275
0 -355 3 -358 13 -2 6 -9 37 -16 67 -7 30 -15 61 -17 68 -4 9 66 12 330 12
l334 0 34 -62z m-2173 -198 l3 -30 -70 0 -70 0 -3 -142 -3 -143 -25 0 c-24 0
-25 2 -28 75 -3 80 -9 90 -57 90 -37 0 -51 -9 -58 -35 -3 -11 -4 25 -2 80 2
56 0 107 -5 114 -4 8 -25 17 -46 20 -22 4 51 5 161 3 l200 -3 3 -29z m2272
-45 c23 -77 53 -253 44 -266 -3 -5 -18 -9 -34 -9 l-29 0 -3 88 -3 87 -57 3
-58 3 0 49 0 50 -90 0 -90 0 -1 -82 c-1 -50 -4 -73 -8 -58 -7 27 -42 37 -87
26 -23 -6 -24 -11 -24 -81 0 -73 -1 -75 -25 -75 -24 0 -24 1 -27 98 l-3 97
-110 0 -110 0 -3 -37 c-3 -33 -6 -38 -29 -38 -26 0 -26 0 -19 61 3 34 6 84 6
110 l0 49 363 2 c199 2 365 1 369 -2 3 -3 16 -36 28 -75z m-2800 -100 l0 -175
-25 0 c-25 0 -25 1 -25 80 0 92 -2 94 -101 88 l-54 -3 -3 -83 -3 -83 -37 3
c-37 3 -37 3 -34 43 4 54 19 134 44 228 l20 77 109 0 109 0 0 -175z m1240
-205 c270 -25 409 -59 625 -156 92 -42 131 -54 169 -54 80 0 121 -17 135 -56
7 -19 30 -55 52 -80 l39 -45 0 -97 -1 -97 -25 53 c-98 202 -356 110 -392 -139
-6 -43 -11 -54 -27 -57 -11 -2 -150 -30 -308 -63 -159 -32 -293 -57 -298 -53
-5 3 -9 18 -9 33 0 78 -67 184 -141 221 -45 24 -125 26 -173 6 -91 -38 -161
-144 -179 -271 l-11 -75 -163 0 -164 0 -59 93 c-32 50 -63 97 -68 103 -12 14
-314 56 -324 46 -5 -5 -14 -39 -21 -76 l-13 -68 -32 33 c-17 18 -37 48 -43 67
-15 46 -6 127 22 192 18 43 24 49 30 33 4 -10 13 -24 21 -30 13 -11 155 -33
313 -48 39 -4 101 -16 139 -27 52 -16 84 -19 136 -15 79 7 127 28 190 86 l45
41 -65 -7 c-118 -13 -340 -7 -510 16 -215 28 -248 41 -214 89 25 36 247 110
382 128 44 6 74 20 161 79 274 182 444 225 781 195z m960 -100 c89 -14 143
-35 138 -52 -3 -7 -25 -21 -51 -30 -45 -17 -45 -17 -61 7 -18 28 -85 50 -179
61 -52 6 -127 28 -127 37 0 5 207 -12 280 -23z m260 -38 c71 -34 42 -83 -77
-132 l-75 -31 -24 22 c-13 12 -24 25 -24 29 0 4 34 20 76 36 96 37 112 61 59
93 -18 11 -18 11 5 6 14 -4 41 -14 60 -23z m160 -52 c84 -43 60 -89 -128 -239
-75 -60 -137 -109 -138 -108 -1 1 -4 41 -8 88 l-6 86 83 41 c104 52 148 89
150 125 1 15 3 27 5 27 1 0 20 -9 42 -20z m-2885 -370 c-19 -55 -19 -164 1
-222 8 -25 31 -64 50 -86 18 -22 34 -42 34 -45 0 -2 -12 -7 -27 -10 -16 -3
-56 -12 -89 -20 l-62 -15 -45 92 c-63 128 -121 295 -104 302 17 6 251 51 255
49 1 -1 -5 -21 -13 -45z m2402 -9 c44 -43 71 -157 41 -165 -7 -2 -35 -9 -63
-15 -27 -6 -69 -25 -93 -41 -23 -17 -44 -30 -47 -30 -8 0 -25 75 -25 109 0
133 112 218 187 142z m-1096 -158 c41 -35 59 -79 59 -145 -1 -104 -60 -178
-143 -178 -67 0 -127 81 -127 171 0 39 27 110 53 137 46 50 109 56 158 15z
m839 -243 c-11 -30 -20 -82 -20 -115 l-1 -60 -247 -182 c-136 -101 -338 -251
-449 -334 l-203 -150 -44 6 c-40 6 -48 12 -71 50 -61 104 -220 113 -297 16
l-23 -29 -99 47 -100 47 155 81 c246 131 1405 686 1416 679 1 -1 -7 -26 -17
-56z m-1460 -190 c107 -12 205 -22 217 -23 12 -2 24 -5 27 -7 2 -3 -69 -36
-159 -75 -90 -38 -159 -73 -152 -77 6 -3 49 -12 96 -19 47 -6 94 -14 103 -18
12 -4 -44 -36 -177 -100 l-195 -94 -57 44 c-73 54 -283 258 -283 274 0 19 308
122 350 118 19 -1 123 -12 230 -23z m308 -652 c9 -9 12 -87 12 -290 l0 -278
-60 0 -60 0 0 272 c0 239 2 274 17 290 18 20 73 24 91 6z m-1127 -42 c63 -23
113 -67 143 -128 21 -42 26 -66 26 -127 -1 -121 -47 -194 -155 -242 -41 -19
-73 -24 -182 -27 l-133 -4 0 277 0 278 128 -6 c77 -3 145 -12 173 -21z m2299
-36 l0 -60 -75 0 -75 0 0 -215 0 -215 -65 0 -65 0 0 215 0 215 -75 0 -75 0 0
60 0 60 215 0 215 0 0 -60z m1110 -92 l1 -153 22 30 c67 91 83 102 154 108 38
3 70 4 72 2 2 -2 -26 -41 -63 -87 -36 -45 -66 -87 -66 -93 0 -5 32 -53 70
-105 39 -52 70 -96 70 -97 0 -2 -31 -3 -70 -3 l-70 0 -57 82 -58 83 -3 -83 -3
-82 -59 0 -60 0 0 275 0 275 60 0 60 0 0 -152z m-2903 -31 c49 -34 80 -87 89
-154 l7 -52 -144 -3 -144 -3 27 -27 c32 -33 75 -37 118 -11 28 16 30 16 64
-11 41 -31 43 -37 19 -58 -58 -51 -167 -68 -228 -35 -40 20 -91 75 -104 110
-25 66 -6 164 42 216 61 66 180 79 254 28z m373 11 c78 -40 85 -58 88 -229 l3
-149 -55 0 c-50 0 -56 2 -56 21 0 20 0 20 -25 1 -84 -67 -225 -11 -225 88 0
90 53 130 170 130 76 0 91 14 48 44 -28 20 -68 20 -112 2 -32 -14 -35 -13 -60
13 -32 33 -32 42 -3 61 68 45 159 52 227 18z m578 7 c74 -31 121 -102 122
-182 l0 -43 -135 0 c-112 0 -135 -2 -135 -15 0 -18 50 -45 83 -45 13 0 36 9
51 21 l27 21 38 -34 c22 -18 39 -35 40 -38 0 -14 -68 -55 -111 -66 -158 -41
-298 105 -247 257 38 113 159 169 267 124z m415 -1 c32 -7 32 -7 11 -67 -15
-45 -16 -46 -62 -49 -40 -3 -49 -8 -69 -37 -20 -30 -23 -46 -23 -132 l0 -99
-60 0 -60 0 0 190 0 190 40 1 c22 1 48 2 58 3 10 0 16 -6 16 -17 -2 -19 11
-23 22 -6 9 16 66 39 84 34 8 -2 27 -7 43 -11z m610 5 c20 -5 37 -12 37 -16 0
-3 -8 -27 -17 -54 l-18 -49 -46 0 c-74 0 -84 -18 -85 -154 l-1 -111 -59 0 -59
0 -3 188 -2 187 60 0 c49 0 60 -3 60 -17 0 -15 1 -15 18 0 15 14 56 34 72 36
3 1 22 -4 43 -10z m257 1 c20 -5 51 -26 70 -45 l35 -36 3 -155 3 -154 -55 0
c-50 0 -56 2 -56 20 0 20 -1 20 -31 -2 -23 -17 -44 -23 -80 -22 -60 1 -96 24
-123 79 -17 35 -18 42 -5 78 22 62 56 81 150 86 85 3 100 15 57 45 -28 20 -59
20 -102 2 -33 -14 -35 -13 -62 15 -35 37 -26 57 37 81 50 19 108 22 159 8z
m459 -21 c23 -12 41 -28 41 -34 0 -6 -16 -26 -35 -45 -33 -32 -36 -33 -53 -17
-21 19 -73 22 -103 7 -30 -17 -52 -68 -45 -106 12 -63 91 -95 145 -58 22 16
24 15 60 -20 l36 -37 -27 -24 c-37 -32 -116 -48 -175 -35 -63 15 -98 37 -131
84 -23 34 -27 49 -27 111 0 62 4 77 28 114 58 88 189 115 286 60z"/>
<path d="M2167 4514 c-13 -13 -7 -52 9 -58 9 -3 44 -6 78 -6 73 0 108 18 90
47 -9 14 -27 19 -91 21 -43 1 -82 0 -86 -4z"/>
<path d="M3112 4508 c-36 -36 5 -60 95 -56 69 3 93 18 80 52 -5 13 -21 16 -85
16 -47 0 -83 -5 -90 -12z"/>
<path d="M1821 4331 c-7 -13 -7 -23 2 -35 11 -15 36 -16 216 -14 177 3 205 5
214 20 8 12 7 21 -2 32 -12 14 -43 16 -217 16 -188 0 -204 -1 -213 -19z"/>
<path d="M3191 4331 c-7 -13 -7 -23 2 -35 11 -15 35 -16 211 -14 173 3 200 5
209 20 8 12 7 21 -2 32 -11 14 -43 16 -212 16 -183 0 -199 -1 -208 -19z"/>
<path d="M1579 4155 c-21 -11 -59 -55 -59 -67 0 -5 664 2 678 7 19 7 14 53 -7
65 -12 6 -126 10 -303 10 -225 -1 -288 -4 -309 -15z"/>
<path d="M3240 4150 c-16 -16 -18 -25 -10 -40 10 -19 22 -20 335 -20 185 0
325 4 325 9 0 5 -16 23 -35 40 l-36 31 -279 0 c-268 0 -281 -1 -300 -20z"/>
<path d="M1643 3963 l-252 -3 -20 -27 c-12 -14 -21 -30 -21 -34 0 -5 130 -9
288 -9 298 0 312 2 312 42 0 17 -31 40 -47 36 -4 -2 -121 -4 -260 -5z"/>
<path d="M3735 3960 l-250 -5 0 -30 0 -30 288 -3 c243 -2 287 0 287 12 0 15
-57 68 -68 64 -4 -1 -119 -5 -257 -8z"/>
<path d="M3568 2094 c-78 -42 -76 -178 2 -219 135 -70 262 95 155 202 -28 28
-40 33 -81 33 -27 -1 -61 -7 -76 -16z"/>
<path d="M2220 2954 c-50 -21 -166 -84 -235 -128 l-80 -51 55 -7 c58 -8 324
-37 400 -45 l45 -4 58 70 c32 39 77 85 102 103 24 18 44 36 45 39 0 4 -15 9
-32 13 -49 9 -341 17 -358 10z"/>
<path d="M2745 2901 c-68 -34 -151 -110 -201 -185 -18 -27 -32 -51 -31 -52 2
-2 140 17 307 41 167 25 309 45 315 45 6 0 33 14 60 31 l49 31 -40 24 c-82 50
-203 86 -304 91 -91 5 -98 3 -155 -26z"/>
<path d="M1840 2321 c0 -4 9 -20 21 -35 19 -24 26 -26 95 -26 71 0 75 1 84 26
6 14 10 30 10 35 0 5 -47 9 -105 9 -58 0 -105 -4 -105 -9z"/>
<path d="M860 955 l0 -155 50 0 c56 0 93 15 127 52 44 48 48 134 8 194 -22 33
-89 64 -142 64 l-43 0 0 -155z"/>
<path d="M1390 967 c-14 -7 -26 -20 -28 -30 -3 -15 6 -17 67 -17 39 0 71 4 71
9 0 14 -50 51 -69 51 -9 0 -27 -6 -41 -13z"/>
<path d="M1783 840 c-16 -6 -23 -18 -23 -35 0 -54 87 -54 112 1 10 21 9 27 -3
35 -18 11 -57 11 -86 -1z"/>
<path d="M2375 968 c-21 -12 -35 -28 -35 -40 0 -5 32 -8 70 -8 53 0 70 3 70
14 0 32 -70 55 -105 34z"/>
<path d="M3673 840 c-16 -6 -23 -18 -23 -35 0 -43 51 -52 93 -17 47 41 -4 78
-70 52z"/>
</g>
</svg>
